<svg width="23" height="26" viewBox="0 0 23 26" fill="none" xmlns="http://www.w3.org/2000/svg">
<path d="M20.8749 10.3994L16.7358 8.00974C17.6093 9.48779 18.0688 11.1737 18.0662 12.8906H18.041L18.0662 12.8948L11.0875 14.0799V11.7088L16.4069 12.6146C16.26 8.35725 12.7511 4.93987 8.45856 4.93987C4.07303 4.93987 0.505493 8.50788 0.505493 12.8929C0.505493 17.278 4.07351 20.8436 8.45856 20.8436C10.5499 20.8453 12.5572 20.0203 14.043 18.5484L14.5349 19.0417L20.8749 15.3822C22.7926 14.2749 22.7926 11.5058 20.8749 10.3994ZM5.65182 14.0799L1.62094 12.8948L5.65182 11.7088V14.0799ZM8.40327 14.3854C8.10813 14.3855 7.81959 14.2981 7.57416 14.1342C7.32872 13.9703 7.13741 13.7373 7.02442 13.4646C6.91143 13.192 6.88185 12.8919 6.9394 12.6024C6.99696 12.313 7.13907 12.0471 7.34776 11.8384C7.55646 11.6297 7.82235 11.4876 8.11182 11.43C8.4013 11.3725 8.70133 11.4021 8.97399 11.515C9.24664 11.628 9.47966 11.8193 9.64357 12.0648C9.80748 12.3102 9.89492 12.5988 9.89482 12.8939C9.89533 13.0899 9.8571 13.2842 9.78233 13.4654C9.70756 13.6467 9.59773 13.8114 9.45914 13.95C9.32054 14.0887 9.15592 14.1987 8.97473 14.2735C8.79353 14.3484 8.59933 14.3868 8.40327 14.3864V14.3854Z" fill="#FFFB01"/>
<path d="M5.65783 11.7082L1.62695 12.8942H1.62743L5.65783 11.7082Z" fill="#FFFB01"/>
<path d="M8.55417 3.28325H8.46264C6.72691 3.28259 5.02343 3.75229 3.53332 4.64243C2.04321 5.53257 0.822167 6.80987 0 8.33854L0 3.32711C0 1.11336 2.39726 -0.269033 4.31498 0.835932L8.55417 3.28325Z" fill="#FFFB01"/>
<path d="M8.55513 22.4968L4.31499 24.9445C2.39727 26.0519 0 24.6676 0 22.4529V17.4415C0.822105 18.9702 2.04313 20.2476 3.53324 21.1378C5.02336 22.0281 6.72687 22.4978 8.46266 22.4972L8.55513 22.4968Z" fill="#FFFB01"/>
</svg>
